<svg viewBox="28 58 586 162" width="100%" role="img" xmlns="http://www.w3.org/2000/svg">
<title>Логотип Tidy Critters Cleaning Service</title>
<desc>Напис Tidy Critters Cleaning Service ліворуч, праворуч гумова рукавичка з відбитком лапки, відро з піною і шваброю, бульбашки та іскорки.</desc>
<rect width="650" height="260" rx="18" fill="#F5F5F7"/>
<text x="40" y="124" font-size="54" font-weight="500" fill="#1D1D1F" letter-spacing="-1" style="font-family:-apple-system,BlinkMacSystemFont,'SF Pro Display',sans-serif">Tidy Critters</text>
<text x="42" y="162" font-size="22" font-weight="400" fill="#6E6E73" style="font-family:-apple-system,BlinkMacSystemFont,'SF Pro Text',sans-serif">Cleaning Service</text>
<g transform="translate(415,40)">
<line x1="124" y1="118" x2="152" y2="40" stroke="#378ADD" stroke-width="5" stroke-linecap="round"/>
<ellipse cx="120" cy="128" rx="28" ry="6" fill="#378ADD"/>
<path d="M92 128H148L143 166Q143 168 141 168H99Q97 168 97 166Z" fill="#85B7EB"/>
<path d="M94.5 142H145.5L144.8 148H95.2Z" fill="#378ADD"/>
<g fill="#CFE6FA"><circle cx="106" cy="124" r="9.5"/><circle cx="118" cy="119" r="11.5"/><circle cx="132" cy="122" r="10.5"/><circle cx="142" cy="126" r="7.5"/></g>
<g fill="#fff"><circle cx="106" cy="124" r="8"/><circle cx="118" cy="119" r="10"/><circle cx="132" cy="122" r="9"/><circle cx="142" cy="126" r="6"/></g>
<path d="M40 124H86L90 144H36Z" fill="#EF9F27"/>
<ellipse cx="39" cy="102" rx="7" ry="14" transform="rotate(-30 39 102)" fill="#FAC775"/>
<rect x="44" y="88" width="38" height="40" rx="12" fill="#FAC775"/>
<g fill="#FAC775"><rect x="44" y="60" width="9" height="38" rx="4.5"/><rect x="54" y="54" width="9" height="44" rx="4.5"/><rect x="64" y="58" width="9" height="40" rx="4.5"/><rect x="74" y="68" width="8.5" height="30" rx="4.25"/></g>
<path d="M53.5 72V92M63.5 68V92M73.5 74V92" stroke="#EF9F27" stroke-width="1.5" stroke-linecap="round"/>
<g fill="#BA7517"><ellipse cx="63" cy="113" rx="8" ry="6"/><circle cx="54" cy="105" r="2.6"/><circle cx="59.5" cy="100.5" r="2.6"/><circle cx="67" cy="100.5" r="2.6"/><circle cx="72.5" cy="105" r="2.6"/></g>
<g fill="none" stroke="#378ADD" stroke-width="2"><circle cx="106" cy="100" r="6"/><circle cx="118" cy="82" r="4"/><circle cx="98" cy="84" r="3.5"/></g>
<path d="M64 30L66 36L72 38L66 40L64 46L62 40L56 38L62 36Z" fill="#85B7EB"/>
<path d="M112 44L114 49L119 51L114 53L112 58L110 53L105 51L110 49Z" fill="#EF9F27"/>
<path d="M162 104L163.5 108L167.5 109.5L163.5 111L162 115L160.5 111L156.5 109.5L160.5 108Z" fill="#85B7EB"/>
</g>
</svg>
